HIERARCHY
ROOT Hips
{
	OFFSET 0.000000 8.830580 0.000000
	CHANNELS 6 Xposition Yposition Zposition Zrotation Yrotation Xrotation 
	JOINT Spine
	{
		OFFSET 0.000000 0.010000 0.000000
		CHANNELS 3 Zrotation Yrotation Xrotation
		JOINT Spine1
		{
			OFFSET 0.000000 2.459130 0.000000
			CHANNELS 3 Zrotation Yrotation Xrotation
			JOINT Neck
			{
				OFFSET 0.000000 2.484630 0.000000
				CHANNELS 3 Zrotation Yrotation Xrotation
				JOINT Head_virtual
				{
					OFFSET 0.000000 0.000000 0.000000
					CHANNELS 3 Zrotation Yrotation Xrotation
					JOINT Head
					{
						OFFSET 0.000000 0.927525 0.000000
						CHANNELS 3 Zrotation Yrotation Xrotation
						End Site
						{
							OFFSET 0.000000 0.000000 0.000000
						}
					}
				}
				JOINT LeftUpArm_virtual
				{
					OFFSET 0.000000 0.000000 0.000000
					CHANNELS 3 Zrotation Yrotation Xrotation
					JOINT LeftUpArm
					{
						OFFSET 1.248820 0.000000 0.000000
						CHANNELS 3 Zrotation Yrotation Xrotation
						JOINT LeftForeArm
						{
							OFFSET 2.597580 0.000000 0.000000
							CHANNELS 3 Zrotation Yrotation Xrotation
							JOINT LeftHand
							{
								OFFSET 2.455420 0.000000 0.000000
								CHANNELS 3 Zrotation Yrotation Xrotation
								End Site
								{
									OFFSET 0.000000 0.000000 0.000000
								}
							}
						}
					}
				}
				JOINT RightUpArm_virtual
				{
					OFFSET -0.000000 -0.000000 -0.000000
					CHANNELS 3 Zrotation Yrotation Xrotation
					JOINT RightUpArm
					{
						OFFSET -1.248820 -0.000000 -0.000000
						CHANNELS 3 Zrotation Yrotation Xrotation
						JOINT RightForeArm
						{
							OFFSET -2.597580 -0.000000 -0.000000
							CHANNELS 3 Zrotation Yrotation Xrotation
							JOINT RightHand
							{
								OFFSET -2.455420 -0.000000 -0.000000
								CHANNELS 3 Zrotation Yrotation Xrotation
								End Site
								{
									OFFSET 0.000000 0.000000 0.000000
								}
							}
						}
					}
				}
			}
		}
	}
	JOINT LeftUpLeg
	{
		OFFSET 1.271939 0.000000 0.000000
		CHANNELS 3 Zrotation Yrotation Xrotation
		JOINT LeftLowLeg
		{
			OFFSET 0.000000 -4.342910 0.000000
			CHANNELS 3 Zrotation Yrotation Xrotation
			JOINT LeftFoot
			{
				OFFSET 0.000000 -4.487670 0.000000
				CHANNELS 3 Zrotation Yrotation Xrotation
				JOINT LeftToeBase
				{
					OFFSET 0.000000 0.000000 1.515070
					CHANNELS 3 Zrotation Yrotation Xrotation
					End Site
					{
						OFFSET 0.000000 0.000000 0.000000
					}
				}
			}
		}
	}
	JOINT RightUpLeg
	{
		OFFSET -1.271939 0.000000 0.000000
		CHANNELS 3 Zrotation Yrotation Xrotation
		JOINT RightLowLeg
		{
			OFFSET 0.000000 -4.342910 0.000000
			CHANNELS 3 Zrotation Yrotation Xrotation
			JOINT RightFoot
			{
				OFFSET 0.000000 -4.487670 0.000000
				CHANNELS 3 Zrotation Yrotation Xrotation
				JOINT RightToeBase
				{
					OFFSET 0.000000 0.000000 1.515070
					CHANNELS 3 Zrotation Yrotation Xrotation
					End Site
					{
						OFFSET 0.000000 0.000000 0.000000
					}
				}
			}
		}
	}
}
MOTION
Frames: 17
Frame Time: 0.041667
-19.902137 9.350712 35.709504 -173.291731 -16.548852 -173.498385 2.701422 -9.191227 -6.228854 20.186798 2.166991 -7.093629 0.000000 0.000000 0.000000 -26.130441 -4.533757 -0.029168 22.233708 18.514742 -94.190395 -14.259800 0.876557 4.985160 69.600800 -24.478300 -42.480701 0.000000 -41.931099 0.000000 89.327599 -39.456902 -7.374040 22.707800 -4.131490 4.709940 39.859402 3.687770 2.584750 0.000000 28.760000 0.000000 -15.596600 -7.441830 12.698800 7.461884 -2.012265 -4.352439 0.000000 0.000000 5.784420 -13.908255 6.338342 5.166809 0.000000 0.000000 -38.315201 6.577412 -0.941182 -5.568784 0.000000 0.000000 6.711900 12.335389 -14.032284 8.690096 0.000000 0.000000 -30.572000 
-19.891165 9.351746 35.694676 -173.419825 -16.388391 -173.143209 2.689155 -9.080692 -6.025410 20.386068 2.411510 -7.669232 0.000000 0.000000 0.000000 -25.705315 -4.807965 -0.097873 21.926055 18.774541 -94.600418 -13.426500 1.471450 5.049330 73.594597 -24.703899 -39.949902 0.000000 -37.406601 0.000000 91.304802 -46.898201 -3.279680 22.665899 -4.326090 4.667180 39.746300 3.434850 2.473070 0.000000 29.163000 0.000000 -15.149000 -8.050670 15.157600 7.393769 -1.811324 -4.463164 0.000000 0.000000 5.576450 -13.962149 6.438856 5.310735 0.000000 0.000000 -37.821501 6.535772 -0.829751 -5.716021 0.000000 0.000000 6.517100 12.238263 -13.967776 8.719604 0.000000 0.000000 -30.490300 
-19.882223 9.353531 35.678742 -173.506152 -16.136659 -172.717515 2.876457 -8.969948 -5.944588 20.600928 2.614031 -8.191863 0.000000 0.000000 0.000000 -25.924036 -4.701886 -0.251755 22.124636 18.698969 -94.706838 -11.906400 2.361640 4.024660 74.850800 -26.284300 -38.555698 0.000000 -32.819000 0.000000 79.908096 -45.437099 5.244440 22.735901 -4.384700 4.885690 39.408298 3.293460 2.319170 0.000000 29.495600 0.000000 -15.284800 -7.419260 14.184600 7.332706 -1.419584 -4.615250 0.000000 0.000000 5.369260 -14.071390 6.492909 5.432307 0.000000 0.000000 -37.525999 6.507907 -0.650761 -5.897272 0.000000 0.000000 6.253180 12.163619 -13.856219 8.813663 0.000000 0.000000 -30.411200 
-19.875278 9.357080 35.665668 -173.575450 -15.766714 -172.361701 3.293509 -8.840908 -5.838160 20.655831 2.764422 -8.548473 0.000000 0.000000 0.000000 -26.416959 -4.503663 -0.531386 22.206321 18.556032 -94.928945 -10.685300 2.827530 2.852060 74.897102 -27.793501 -38.617699 0.000000 -27.482700 0.000000 67.512604 -40.081799 11.156900 22.944300 -4.476940 4.989650 38.930099 3.349800 2.389810 0.000000 29.640600 0.000000 -15.310700 -7.667800 15.167800 7.255764 -1.037239 -4.688020 0.000000 0.000000 5.158830 -14.190761 6.658395 5.584395 0.000000 0.000000 -37.627300 6.457400 -0.422335 -6.048405 0.000000 0.000000 6.007780 12.007138 -13.700423 9.031157 0.000000 0.000000 -30.371000 
-19.870212 9.362072 35.655803 -173.696331 -15.375845 -172.067067 3.776003 -8.752397 -5.662825 20.542129 2.843602 -8.802895 0.000000 0.000000 0.000000 -26.735650 -4.345844 -0.894848 21.937215 18.575556 -95.308761 -10.376000 2.583770 2.026550 75.304604 -28.549101 -39.948299 0.000000 -21.165501 0.000000 58.517700 -33.381500 13.041700 22.987900 -4.607350 4.680910 38.761299 3.502610 2.826760 0.000000 29.267700 0.000000 -15.371200 -7.637080 15.426500 7.113741 -0.692064 -4.731656 0.000000 0.000000 5.000480 -14.305500 6.849951 5.789183 0.000000 0.000000 -37.529699 6.330085 -0.104380 -6.181680 0.000000 0.000000 5.848300 11.974607 -13.601237 9.187378 0.000000 0.000000 -30.289700 
-19.865320 9.367078 35.646025 -173.866795 -15.210872 -171.871082 4.191491 -8.882845 -5.547906 20.433339 2.635486 -8.736623 0.000000 0.000000 0.000000 -26.876902 -4.047280 -1.562108 21.504432 18.707074 -95.687493 -10.546400 2.250030 1.269480 75.958298 -28.990601 -42.337799 0.000000 -14.743400 0.000000 53.370602 -23.785101 22.627199 22.816500 -4.592210 4.281020 38.887402 3.835590 3.361650 0.000000 28.558100 0.000000 -15.499500 -7.589990 16.008600 6.956767 -0.515959 -4.746083 0.000000 0.000000 4.870240 -14.364844 6.971404 6.072351 0.000000 0.000000 -37.449301 6.203226 -0.093336 -6.179498 0.000000 0.000000 5.626830 11.816821 -13.530872 9.367621 0.000000 0.000000 -30.238900 
-19.861276 9.371568 35.635407 -174.083033 -15.395959 -171.717565 4.461494 -9.151482 -5.775652 20.465780 2.181859 -8.143093 0.000000 0.000000 0.000000 -26.888112 -3.842782 -2.229275 21.064978 18.871036 -96.132182 -10.756800 1.995380 0.608371 76.519402 -29.448601 -47.843399 0.000000 -8.726890 0.000000 52.976799 -11.977100 25.164400 22.534000 -4.264380 3.725580 39.011700 3.846420 3.819420 0.000000 28.064501 0.000000 -15.494500 -8.040160 16.553600 6.813403 -0.602092 -4.844868 0.000000 0.000000 4.860340 -14.471040 6.932792 6.362076 0.000000 0.000000 -37.381500 6.073397 -0.142461 -6.128539 0.000000 0.000000 5.454330 11.737859 -13.758248 9.365027 0.000000 0.000000 -30.169000 
-19.853950 9.376708 35.622918 -174.380851 -15.687102 -171.331180 4.623769 -9.685322 -5.865866 20.529610 1.578598 -8.009280 0.000000 0.000000 0.000000 -27.146388 -3.227615 -3.237738 20.869805 18.897534 -96.232319 -10.827300 2.589970 0.685730 76.834900 -29.059500 -62.240898 0.000000 -5.473460 0.000000 55.741600 -2.132750 27.283600 22.315500 -3.804780 4.086340 39.033600 4.293800 3.927760 0.000000 27.604601 0.000000 -15.387500 -9.011350 18.262100 6.671919 -0.790335 -5.144261 0.000000 0.000000 4.795270 -14.646115 6.740716 6.787467 0.000000 0.000000 -37.313299 5.862806 0.402101 -6.394498 0.000000 0.000000 5.532300 11.775919 -14.576693 9.060913 0.000000 0.000000 -30.021100 
-19.844169 9.381554 35.618826 -174.669204 -15.746344 -171.077525 4.709208 -9.970390 -5.645218 20.450645 1.276752 -8.023535 0.000000 0.000000 0.000000 -27.224456 -2.884214 -3.992115 20.551775 18.987934 -96.470561 -10.898700 2.440910 0.087809 76.383698 -28.458799 -79.182098 0.000000 -5.186940 0.000000 63.098999 3.808440 28.135799 22.106300 -3.355960 4.558240 39.122601 4.619060 3.690150 0.000000 27.102301 0.000000 -15.220000 -9.510970 19.038700 6.509786 -0.649420 -5.330783 0.000000 0.000000 4.765320 -14.850686 6.425080 7.237751 0.000000 0.000000 -37.309999 5.725844 -0.007348 -6.554420 0.000000 0.000000 5.490990 11.501632 -14.473405 9.135572 0.000000 0.000000 -30.065400 
-19.833392 9.386156 35.611792 -174.910621 -15.911947 -170.768448 4.813925 -10.152566 -5.503626 20.289208 1.129021 -8.245182 0.000000 0.000000 0.000000 -27.094397 -2.875437 -4.303204 20.186060 19.092890 -96.711292 -10.940900 2.453380 -0.899767 76.442398 -28.257601 -90.721199 0.000000 -5.126330 0.000000 67.780098 6.627460 32.920700 21.962200 -3.005080 4.957090 39.165401 4.555750 3.376320 0.000000 26.720100 0.000000 -15.149000 -9.814200 19.662800 6.431100 -0.600118 -5.581927 0.000000 0.000000 4.715440 -15.147707 6.050272 7.691038 0.000000 0.000000 -37.428600 5.611787 -0.081184 -6.762717 0.000000 0.000000 5.479030 11.393051 -14.641118 9.090444 0.000000 0.000000 -29.999900 
-19.821695 9.390135 35.602930 -175.064323 -15.983665 -170.504691 4.882248 -10.219466 -5.408707 20.198392 1.093520 -8.422605 0.000000 0.000000 0.000000 -27.182994 -2.796007 -4.399779 20.086155 19.137369 -96.819059 -11.128800 2.948540 -1.195720 77.374802 -27.257799 -95.758301 0.000000 -4.237560 0.000000 64.590302 7.717950 35.679401 21.766500 -2.651950 5.186960 39.236900 4.300420 3.121960 0.000000 26.234301 0.000000 -15.129900 -9.779760 20.252899 6.409215 -0.373493 -5.728292 0.000000 0.000000 4.578690 -15.365627 5.689949 8.077833 0.000000 0.000000 -37.427099 5.534929 0.192134 -6.908769 0.000000 0.000000 5.409810 11.397026 -14.936393 9.047322 0.000000 0.000000 -29.931800 
-19.809872 9.393888 35.592718 -175.152158 -15.996993 -170.303984 4.888606 -10.122976 -5.347208 20.255196 1.212007 -8.517730 0.000000 0.000000 0.000000 -27.463446 -2.820623 -4.482962 20.315846 18.826335 -96.610755 -11.168600 4.132370 -1.277230 78.360802 -26.565901 -93.051804 0.000000 -2.872900 0.000000 56.769699 6.701720 33.387699 21.584700 -2.500730 5.148080 39.135300 3.840060 3.190780 0.000000 25.940001 0.000000 -15.189200 -9.963030 20.612000 6.420310 -0.008226 -5.766190 0.000000 0.000000 4.371150 -15.550897 5.318903 8.443841 0.000000 0.000000 -37.439800 5.518372 0.266831 -7.024367 0.000000 0.000000 5.372890 11.378428 -14.955589 9.099365 0.000000 0.000000 -29.940300 
-19.798203 9.396395 35.578019 -175.186506 -16.079172 -170.163385 4.933036 -9.889558 -5.407009 20.177609 1.464398 -8.594099 0.000000 0.000000 0.000000 -27.558430 -2.964957 -4.365757 20.605703 18.521512 -96.281963 -10.867200 5.278420 -1.158320 78.751099 -26.429399 -84.469200 0.000000 -2.362950 0.000000 51.823399 3.210870 28.863300 21.518499 -2.579770 5.112050 38.904400 3.351890 3.271360 0.000000 25.580200 0.000000 -15.066500 -10.285700 20.298599 6.483887 0.213121 -5.750830 0.000000 0.000000 4.172340 -15.683438 5.082682 8.694150 0.000000 0.000000 -37.428200 5.582979 0.107081 -7.017592 0.000000 0.000000 5.248320 11.394497 -14.817718 9.181205 0.000000 0.000000 -29.928600 
-19.785782 9.399485 35.564799 -175.173803 -16.155525 -170.071566 4.853819 -9.502871 -5.500256 20.233198 1.867546 -8.582423 0.000000 0.000000 0.000000 -27.520718 -3.243216 -4.162030 20.899932 18.183087 -95.906943 -10.695100 6.042300 -1.417330 78.739197 -26.702801 -75.861702 0.000000 -3.108410 0.000000 51.595402 -1.742400 27.123699 21.445601 -2.911860 4.912310 38.634602 2.911770 3.297070 0.000000 25.082600 0.000000 -15.385700 -9.936900 20.840900 6.583604 0.300067 -5.746449 0.000000 0.000000 4.041160 -15.768348 5.043288 8.866290 0.000000 0.000000 -37.406500 5.700556 -0.277847 -6.987903 0.000000 0.000000 5.127870 11.354314 -14.421851 9.385252 0.000000 0.000000 -29.884500 
-19.772094 9.401525 35.553423 -175.187176 -16.289418 -170.096078 4.661745 -9.085659 -5.517537 20.294870 2.303248 -8.509836 0.000000 0.000000 0.000000 -27.350844 -3.604600 -4.031716 21.302622 17.802036 -95.540520 -10.766900 6.333150 -1.991110 78.673798 -26.808901 -68.469902 0.000000 -5.353520 0.000000 50.751400 -3.135400 24.232300 21.280500 -3.369880 4.371960 38.573399 2.336750 3.144960 0.000000 24.671301 0.000000 -15.481900 -9.943130 21.206600 6.669194 0.263096 -5.729210 0.000000 0.000000 4.070170 -15.956474 5.040279 8.942300 0.000000 0.000000 -37.234600 5.791764 -0.481605 -6.961367 0.000000 0.000000 5.236890 11.331312 -14.246858 9.404578 0.000000 0.000000 -29.854000 
-19.756878 9.402138 35.544713 -175.180655 -16.619365 -170.226651 4.405761 -8.724517 -5.498414 20.248296 2.702564 -8.478399 0.000000 0.000000 0.000000 -26.581395 -4.210336 -3.669076 21.221893 17.787166 -95.390391 -10.810700 6.168510 -2.025080 79.146400 -26.248501 -65.619301 0.000000 -8.124330 0.000000 45.965099 -0.139470 21.209801 21.126699 -3.737430 3.879720 38.616600 1.605390 2.851380 0.000000 24.287600 0.000000 -15.751100 -9.821450 21.421400 6.823740 -0.099085 -5.739919 0.000000 0.000000 4.218460 -16.105209 5.136650 8.899368 0.000000 0.000000 -37.117800 5.932564 -0.809149 -6.864368 0.000000 0.000000 5.380840 11.345336 -14.130775 9.348209 0.000000 0.000000 -29.786600 
-19.740442 9.402665 35.536120 -175.190534 -17.193000 -170.407072 4.076867 -8.516131 -5.487477 20.190353 2.954092 -8.436583 0.000000 0.000000 0.000000 -25.822746 -4.633205 -3.342210 21.391379 17.871199 -95.228319 -10.588200 6.178550 -1.604950 80.117798 -26.254101 -72.313400 0.000000 -9.653140 0.000000 42.290901 4.831680 23.863701 20.989000 -3.999370 3.692230 38.690498 0.989399 2.298780 0.000000 23.990700 0.000000 -15.956900 -9.961070 21.611300 6.976157 -0.502737 -5.815995 0.000000 0.000000 4.469430 -16.216529 5.140566 8.875073 0.000000 0.000000 -36.950500 6.070421 -1.046458 -6.736059 0.000000 0.000000 5.583160 11.494658 -14.257928 9.156141 0.000000 0.000000 -29.693100 
